HIERARCHY
ROOT Hips
{
  OFFSET -397.147 97.7039 -36.6893
  CHANNELS 6 Xposition Yposition Zposition Zrotation Xrotation Yrotation
  JOINT RightUpLeg
  {
    OFFSET -8.9458 -8.66707 0.101652
    CHANNELS 3 Zrotation Xrotation Yrotation
    JOINT RightLeg
    {
      OFFSET 0 -44.4227 1.3727
      CHANNELS 3 Zrotation Xrotation Yrotation
      JOINT RightFoot
      {
        OFFSET 0.253549 -42.0924 -1.46059
        CHANNELS 3 Zrotation Xrotation Yrotation
        JOINT RightToes
        {
          OFFSET 0.04 -4.41509 8.4991
          CHANNELS 3 Zrotation Xrotation Yrotation
          End Site
          {
            OFFSET -0.08 -0.137448 9.77979
          }
        }
      }
    }
  }
  JOINT Spine
  {
    OFFSET 0 11.8905 0
    CHANNELS 3 Zrotation Xrotation Yrotation
    JOINT Spine1
    {
      OFFSET 0 25.6574 0.127663
      CHANNELS 3 Zrotation Xrotation Yrotation
      JOINT HEad
      {
        OFFSET 0 8.73416 0.011341
        CHANNELS 3 Zrotation Xrotation Yrotation
        End Site
        {
          OFFSET -0.29 12.7742 2.51395
        }
      }
      JOINT LeftShoulder1
      {
        OFFSET 8.99 -0.362252 -0.22
        CHANNELS 3 Zrotation Xrotation Yrotation
        JOINT LeftArm
        {
          OFFSET 10.2827 -0.00338 0.322123
          CHANNELS 3 Zrotation Xrotation Yrotation
          JOINT LeftForeArm
          {
            OFFSET 32.7669 0.099144 -1.42434
            CHANNELS 3 Zrotation Xrotation Yrotation
            JOINT LeftHand
            {
              OFFSET 27.5643 0.085362 1.02216
              CHANNELS 3 Zrotation Xrotation Yrotation
              End Site
              {
                OFFSET 16.7443 -0.6 1.50291
              }
            }
          }
        }
      }
      JOINT RightShoulder
      {
        OFFSET -8.99 -0.362252 -0.22
        CHANNELS 3 Zrotation Xrotation Yrotation
        JOINT RightArm
        {
          OFFSET -10.2827 -0.00338 0.322123
          CHANNELS 3 Zrotation Xrotation Yrotation
          JOINT RightForeArm
          {
            OFFSET -32.8971 0.099144 -1.42434
            CHANNELS 3 Zrotation Xrotation Yrotation
            JOINT RightHand
            {
              OFFSET -27.4921 0.085362 1.02216
              CHANNELS 3 Zrotation Xrotation Yrotation
              End Site
              {
                OFFSET -16.6312 -0.6 1.50291
              }
            }
          }
        }
      }
    }
  }
  JOINT LeftUpLeg
  {
    OFFSET 8.9458 -8.66707 0.101652
    CHANNELS 3 Zrotation Xrotation Yrotation
    JOINT LeftLeg
    {
      OFFSET 0 -44.4227 1.3727
      CHANNELS 3 Zrotation Xrotation Yrotation
      JOINT LeftFoot
      {
        OFFSET -0.253549 -42.0924 -1.46059
        CHANNELS 3 Zrotation Xrotation Yrotation
        JOINT LeftToes
        {
          OFFSET -0.04 -4.41509 8.4991
          CHANNELS 3 Zrotation Xrotation Yrotation
          End Site
          {
            OFFSET 0.08 -0.047448 9.77979
          }
        }
      }
    }
  }
}
MOTION
Frames:	19
Frame Time:	0.0166667
-395.436 96.034 -34.8391 8.24624 -10.3559 49.2659 -8.41707 -7.43709 -5.54931 25.837 32.1736 -28.504 -31.3953 -2.45651 -1.73299 0.0462048 0.000533403 0.662642 -5.00246 22.5731 -11.053 -0.000632719 0.02169 0.00651393 1.29104 5.22974 11.7352 -9.93923e-016 0 3.18055e-015 -173.433 -62.0145 -145.512 -89.9147 63.3323 -27.6505 19.6734 16.9956 -12.5564 19.1321 14.5275 8.00443 105.53 -9.70317 80.1356 34.6117 49.8662 76.2448 14.8366 12.7064 1.16404 20.8459 -10.4649 -16.9093 -32.0073 7.7282 71.674 59.9409 2.59551 0.342466 -1.18447e-009 1.5602e-007 -4.87131e-009 
-395.295 95.9124 -34.6301 7.79859 -10.2964 48.8927 -7.40101 -8.29623 -7.44953 23.3026 33.8705 -25.8798 -31.59 -1.91218 -1.68672 0.0462048 0.000533403 0.662642 -3.8373 20.5845 -9.93335 -0.000630754 0.02169 0.00132265 0.267515 6.53431 11.3896 -4.96962e-016 7.95139e-016 -6.36111e-015 -169.171 -63.0127 -140.208 -86.8981 63.5566 -29.2088 19.8642 16.8056 -12.7805 18.2013 15.3558 6.4521 105.686 -9.57455 79.5619 34.357 50.9699 77.2125 15.0244 12.6731 1.74159 21.1825 -10.5329 -17.1474 -32.1312 7.83916 70.4817 56.0951 1.84054 0.748793 -1.18445e-009 1.5602e-007 -4.87131e-009 
-395.058 95.8538 -34.4768 7.4267 -10.2026 48.6711 -7.11599 -8.9713 -7.98552 22.4858 34.8429 -25.0473 -31.9765 -1.41262 -1.63024 0.0462048 0.000533403 0.662642 -2.74373 18.7703 -8.5256 -0.000630754 0.02169 0.00132265 -0.55614 7.78353 10.6319 -4.96962e-017 -2.03754e-015 -3.18055e-015 -163.252 -63.6017 -133.202 -83.2715 63.6755 -31.29 19.9814 16.5693 -12.9197 17.5134 16.001 4.6146 105.741 -9.60534 78.8742 34.047 52.1198 78.3891 15.5288 14.1587 1.52887 21.3693 -10.5722 -17.3547 -32.3306 7.98528 69.4701 52.346 1.13718 1.06252 -1.18447e-009 1.5602e-007 -4.87131e-009 
-394.71 95.8536 -34.3951 7.15144 -10.0699 48.5958 -7.48057 -9.48792 -7.30223 23.1933 35.3097 -25.8994 -31.6201 -1.02736 -1.55745 0.0462048 0.000533403 0.662642 -1.85959 17.4018 -7.23186 -0.000630754 0.02169 0.00132265 -1.09464 8.71389 9.87861 -2.48481e-016 -9.93923e-017 -0 -156.856 -63.5259 -125.924 -79.1266 63.6517 -33.8566 20.1015 16.4312 -13.1423 17.0633 16.3533 2.98942 105.694 -9.81181 78.1087 33.6576 53.3084 79.8251 15.7361 14.404 1.98972 21.4433 -10.5749 -17.5307 -32.4859 8.14798 68.5958 48.6767 0.521427 1.27262 -1.18446e-009 1.5602e-007 -4.87131e-009 
-394.265 95.8757 -34.3813 6.98676 -9.89708 48.6585 -8.28679 -9.84341 -5.53089 25.2752 35.1225 -28.2737 -31.4451 -0.682806 -1.51317 0.0462048 0.000533403 0.662642 -1.19377 16.4227 -6.06734 -0.000630754 0.02169 0.00132265 -1.39163 9.35156 9.13138 6.4605e-016 -2.03754e-015 1.27222e-014 -150.534 -62.8407 -118.899 -74.6328 63.4587 -36.7962 20.1486 16.279 -13.2875 16.7974 16.4553 1.5754 105.569 -10.1908 77.2956 33.1495 54.5275 81.5337 16.1005 15.4475 1.94472 21.4623 -10.5725 -17.6642 -32.6657 8.33862 67.8824 45.1 -0.0327612 1.40377 -1.18446e-009 1.5602e-007 -4.87131e-009 
-393.759 95.9079 -34.4204 6.93651 -9.68719 48.8477 -9.42349 -10.0559 -2.77434 28.4003 34.1898 -31.8933 -31.3985 -0.376866 -1.49636 0.0462048 0.000533403 0.662642 -0.742855 15.7796 -5.04077 -0.000630754 0.02169 0.00132265 -1.492 9.72641 8.39779 9.93923e-016 6.4605e-016 -3.18055e-015 -144.713 -61.6576 -112.525 -69.9944 63.0851 -39.9582 20.1709 16.1975 -13.4501 16.6579 16.3548 0.359622 105.398 -10.717 76.4577 32.4938 55.7576 83.5334 16.2497 15.7037 2.29196 21.4352 -10.5713 -17.752 -32.8734 8.54893 67.3262 41.6269 -0.516105 1.46453 -1.18447e-009 1.5602e-007 -4.87131e-009 
-393.242 95.9378 -34.4897 6.99136 -9.44788 49.1464 -10.5495 -10.2268 -0.221765 31.3008 33.1012 -35.3091 -31.2239 -0.11669 -1.48816 0.0462048 0.000533403 0.662642 -0.492712 15.4222 -4.15189 -0.000630754 0.02169 0.00132265 -1.43692 9.86788 7.69059 1.09332e-015 -2.98177e-016 3.18055e-015 -139.617 -60.1147 -107.011 -65.4128 62.5367 -43.1821 20.132 16.1268 -13.5385 16.6005 16.0978 -0.67051 105.208 -11.3483 75.6082 31.6516 56.9836 85.8251 16.4995 16.3518 2.30931 21.386 -10.5851 -17.7865 -33.1271 8.7815 66.9247 38.259 -0.930361 1.46765 -1.18445e-009 1.5602e-007 -4.87131e-009 
-392.749 95.9595 -34.5715 7.13567 -9.18893 49.5363 -11.6482 -10.3262 2.12661 33.905 31.8813 -38.463 -31.0557 0.109432 -1.4867 0.0462048 0.000533403 0.662642 -0.424053 15.3055 -3.39553 -0.000630754 0.02169 0.00132265 -1.26203 9.80521 7.02425 2.48481e-016 -1.49089e-016 -0 -135.301 -58.3514 -102.406 -61.0645 61.8372 -46.3214 20.0733 16.1183 -13.6194 16.5988 15.7229 -1.53673 105.156 -11.7454 75.3072 32.019 56.893 85.9649 16.7621 16.7465 2.27673 21.3323 -10.6204 -17.7617 -33.4296 9.042 66.6653 34.9887 -1.28192 1.42575 -1.18446e-009 1.5602e-007 -4.87131e-009 
-392.3 95.9726 -34.6538 7.35106 -8.9208 49.999 -12.712 -10.3395 4.27322 36.1665 30.5868 -41.3222 -30.8477 0.30047 -1.48797 0.0462048 0.000533403 0.662642 -0.514277 15.3892 -2.76263 -0.000630754 0.02169 0.00132265 -0.996978 9.56817 6.41153 -3.97569e-016 -9.93923e-017 -3.18055e-015 -131.726 -56.493 -98.6664 -57.0894 61.029 -49.2522 19.9867 16.1358 -13.6469 16.6492 15.2585 -2.26191 105.09 -12.1418 74.9985 32.3206 56.8061 86.2098 17.1108 17.3481 2.01833 21.2829 -10.6742 -17.6771 -33.766 9.33534 66.5249 31.8002 -1.57331 1.34795 -1.18446e-009 1.5602e-007 -4.87131e-009 
-391.901 95.9771 -34.7301 7.61941 -8.65339 50.516 -13.7271 -10.2624 6.2223 38.0768 29.2697 -43.8785 -30.5794 0.456959 -1.48817 0.0462048 0.000533403 0.662642 -0.738614 15.6368 -2.24162 -0.000630754 0.02169 0.00132265 -0.666296 9.18744 5.86209 1.09332e-015 8.94531e-016 -6.36111e-015 -128.815 -54.6457 -95.7058 -53.5843 60.1673 -51.8807 19.9063 16.194 -13.6681 16.7547 14.7258 -2.86896 104.991 -12.4915 74.6795 32.5283 56.709 86.5567 17.3874 17.658 1.87444 21.2434 -10.7399 -17.5364 -34.1231 9.66787 66.4808 28.6743 -1.80847 1.2435 -1.18446e-009 1.5602e-007 -4.87131e-009 
-391.547 95.9734 -34.7964 7.9243 -8.39518 51.0694 -14.6781 -10.0984 7.97993 39.6534 27.9745 -46.1393 -30.2469 0.580337 -1.48492 0.0462048 0.000533403 0.662642 -1.07127 16.016 -1.81968 -0.000630754 0.02169 0.00132265 -0.290645 8.69366 5.38222 -7.95139e-016 1.59028e-015 6.36111e-015 -126.474 -52.8911 -93.4176 -50.5938 59.3058 -54.153 19.8301 16.2566 -13.6706 16.9132 14.1436 -3.3722 104.855 -12.7663 74.3548 32.6272 56.6001 86.9835 17.6945 18.0777 1.58509 21.2164 -10.8095 -17.3472 -34.4908 10.0458 66.5146 25.591 -1.99166 1.11626 -1.18447e-009 1.5602e-007 -4.87131e-009 
-391.23 95.9646 -34.8498 8.25147 -8.15256 51.6418 -15.55 -9.85649 9.55341 40.9269 26.7362 -48.1201 -29.8567 0.672664 -1.47762 0.0462048 0.000533403 0.662642 -1.48636 16.4973 -1.48383 -0.000630754 0.02169 0.00132265 0.111996 8.11641 4.97537 9.93923e-016 8.94531e-016 -6.36111e-015 -124.602 -51.282 -91.6865 -48.1063 58.4828 -56.0619 19.7612 16.3305 -13.6696 17.1167 13.5295 -3.78304 104.683 -12.9555 74.0343 32.6234 56.484 87.4581 17.905 18.3223 1.38004 21.2037 -10.8745 -17.1192 -34.8601 10.4716 66.6126 22.5321 -2.12683 0.971892 -1.18446e-009 1.5602e-007 -4.87131e-009 
-390.94 95.9537 -34.8871 8.58859 -7.93004 52.2167 -16.3309 -9.54879 10.9505 41.9328 25.5814 -49.8396 -29.4192 0.736477 -1.46603 0.0462048 0.000533403 0.662642 -1.95927 17.0538 -1.2215 -0.000630754 0.02169 0.00132265 0.525807 7.48322 4.64279 5.96354e-016 -9.93923e-016 -0 -123.096 -49.8432 -90.3981 -46.0654 57.7167 -57.6396 19.6907 16.4007 -13.6748 17.3573 12.8991 -4.11292 104.484 -13.059 73.7291 32.5342 56.369 87.9417 18.0806 18.6255 1.11377 21.2073 -10.927 -16.8624 -35.2223 10.9443 66.7627 19.4808 -2.21988 0.815312 -1.18447e-009 1.5602e-007 -4.87131e-009 
-390.672 95.9428 -34.9052 8.92545 -7.73093 52.7789 -17.0127 -9.18849 12.1783 42.7065 24.5304 -51.3174 -28.9459 0.774559 -1.45043 0.0462048 0.000533403 0.662642 -2.46736 17.6621 -1.02132 -0.000630754 0.02169 0.00132265 0.936647 6.81946 4.38414 1.98785e-016 -4.96962e-016 -0 -121.865 -48.5797 -89.4528 -44.3953 57.0127 -58.939 19.6124 16.4806 -13.6973 17.6268 12.2661 -4.37589 104.266 -13.0813 73.4474 32.3796 56.2593 88.4076 18.1488 18.831 0.937756 21.2299 -10.9604 -16.587 -35.5689 11.4607 66.9512 16.4221 -2.27596 0.650725 -1.18446e-009 1.5602e-007 -4.87131e-009 
-390.416 95.933 -34.902 9.25413 -7.55815 53.3151 -17.5923 -8.78841 13.2433 43.2824 23.5981 -52.5725 -28.4474 0.789697 -1.43147 0.0462048 0.000533403 0.662642 -2.98962 18.3016 -0.874015 -0.000630754 0.02169 0.00132265 1.33155 6.14835 4.19819 -1.98785e-016 -5.96354e-016 -3.18055e-015 -120.843 -47.4903 -88.7761 -43.0301 56.3746 -60.009 19.5138 16.5656 -13.7208 17.9125 11.6428 -4.58474 104.04 -13.0287 73.1943 32.1746 56.1554 88.8422 18.1689 19.0761 0.761552 21.2743 -10.9693 -16.3049 -35.8933 12.0143 67.1629 13.3441 -2.29764 0.481816 -1.18446e-009 1.5602e-007 -4.87131e-009 
-390.166 95.9242 -34.8765 9.56873 -7.4147 53.8136 -18.0712 -8.35997 14.1523 43.693 22.7947 -53.6231 -27.9327 0.784533 -1.41 0.0462048 0.000533403 0.662642 -3.50656 18.9552 -0.772556 -0.000630754 0.02169 0.00132265 1.69889 5.49048 4.08333 5.96354e-016 3.97569e-016 -6.36111e-015 -119.996 -46.5759 -88.3212 -41.9325 55.8116 -60.8781 19.3987 16.6553 -13.7474 18.1951 11.04 -4.75218 103.825 -12.905 72.9713 31.9317 56.0536 89.2428 18.1223 19.2662 0.667303 21.3434 -10.9491 -16.0315 -36.1921 12.5954 67.3861 10.2381 -2.28865 0.311903 -1.18447e-009 1.5602e-007 -4.87131e-009 
-389.917 95.9159 -34.8287 9.86495 -7.30352 54.2643 -18.454 -7.91365 14.9138 43.9682 22.126 -54.4865 -27.4095 0.761316 -1.3869 0.0462048 0.000533403 0.662642 -4.00133 19.6081 -0.711216 -0.000630754 0.02169 0.00132265 2.02922 4.86302 4.03794 -1.59028e-015 -4.96962e-016 -0 -119.308 -45.8412 -88.0601 -41.0932 55.3369 -61.5524 19.2755 16.7335 -13.7672 18.4585 10.4637 -4.891 103.636 -12.7124 72.7743 31.6628 55.9487 89.6071 18.0707 19.4691 0.587366 21.4397 -10.8975 -15.7832 -36.4651 13.1929 67.6181 7.09868 -2.25187 0.143979 -1.18446e-009 1.5602e-007 -4.87132e-009 
-389.662 95.9075 -34.7592 10.1395 -7.22676 54.6581 -18.7471 -7.45944 15.5386 44.135 21.5934 -55.1802 -26.8843 0.721864 -1.36294 0.0462048 0.000533403 0.662642 -4.46135 20.2467 -0.684667 -0.000630754 0.02169 0.00132265 2.3162 4.27978 4.0603 1.19271e-015 2.08724e-015 -9.54166e-015 -118.772 -45.2898 -87.9705 -40.5152 54.9581 -62.0266 19.1629 16.7883 -13.7934 18.7006 9.91346 -5.01238 103.471 -12.4566 72.5936 31.3848 55.8349 89.9296 18.0163 19.6234 0.562702 21.5651 -10.8152 -15.5767 -36.7157 13.7974 67.8668 3.92194 -2.18887 -0.0182802 -1.18446e-009 1.5602e-007 -4.87132e-009 
-389.4 95.8982 -34.6688 10.3899 -7.18493 54.9877 -18.9585 -7.00732 16.0387 44.2166 21.1947 -55.7231 -26.3633 0.667547 -1.33866 0.0462048 0.000533403 0.662642 -4.8798 20.8581 -0.687916 -0.000630754 0.02169 0.00132265 2.55678 3.75142 4.14845 -1.19271e-015 -1.98785e-015 1.59028e-014 -118.366 -44.9164 -88.0241 -40.1935 54.6669 -62.2991 19.0719 16.8063 -13.8368 18.9251 9.38774 -5.12229 103.319 -12.1486 72.4199 31.1161 55.7084 90.2019 17.9944 19.7713 0.547806 21.7203 -10.7077 -15.427 -36.9511 14.4039 68.1496 0.705087 -2.10045 -0.172804 -1.18446e-009 1.5602e-007 -4.87132e-009 
